<?xml version="1.0" encoding="UTF-8"?>
<svg id="Calque_2" data-name="Calque 2" xmlns="http://www.w3.org/2000/svg" viewBox="0 0 835.5 332.99">
  <defs>
    <style>
      .cls-1, .cls-2 {
        fill: #eaeaea;
      }

      .cls-3 {
        fill: #929193;
      }

      .cls-3, .cls-4, .cls-5, .cls-6, .cls-7, .cls-8, .cls-9, .cls-2, .cls-10 {
        stroke: #1d1d1b;
      }

      .cls-3, .cls-4, .cls-5, .cls-6, .cls-7, .cls-8, .cls-9, .cls-2, .cls-10, .cls-11 {
        stroke-linecap: round;
        stroke-linejoin: round;
        stroke-width: 3px;
      }

      .cls-4 {
        fill: #8ba9b7;
      }

      .cls-5 {
        fill: #56a2ad;
      }

      .cls-6 {
        fill: #5a585a;
      }

      .cls-7 {
        fill: #dd7c7c;
      }

      .cls-8 {
        fill: #fff;
      }

      .cls-9 {
        fill: #f4ef9e;
      }

      .cls-10, .cls-11 {
        fill: none;
      }

      .cls-11 {
        stroke: #fff;
      }

      .cls-12 {
        fill: #487d7c;
        opacity: .41;
      }
    </style>
  </defs>
  <g id="Calque_2-2" data-name="Calque 2">
    <g>
      <rect class="cls-2" x="294.65" y="1.5" width="386.69" height="26.14" rx="12" ry="12"/>
      <circle class="cls-6" cx="717.41" cy="291.11" r="40.37"/>
      <circle class="cls-6" cx="292.85" cy="291.11" r="40.37"/>
      <circle class="cls-3" cx="292.85" cy="291.11" r="18.46"/>
      <rect class="cls-3" x="792.21" y="143.74" width="41.79" height="87.95" rx="20.89" ry="20.89"/>
      <g>
        <path class="cls-1" d="m792.19,98.72c-22.77-45.97-54.97-72.83-73.84-86.11-144.9.68-289.81,1.36-434.72,2.03-13.01-.55-34.98.83-52.56,16.22-20.72,18.15-24.82,46.56-27.23,83.29-.53,7.99-.99,16.64-1.34,25.92,159.04-.88,318.09-1.77,477.13-2.64,20.73-1.21,62.03-.47,103.38,23.71,13.68,8,24.64,16.97,33.21,25.31-2.27-27.33-9.08-57.53-24.04-87.73Z"/>
        <path class="cls-10" d="m792.19,98.72c-22.77-45.97-54.97-72.83-73.84-86.11-144.9.68-289.81,1.36-434.72,2.03-13.01-.55-34.98.83-52.56,16.22-20.72,18.15-24.82,46.56-27.23,83.29-.53,7.99-.99,16.64-1.34,25.92,159.04-.88,318.09-1.77,477.13-2.64,20.73-1.21,62.03-.47,103.38,23.71,13.68,8,24.64,16.97,33.21,25.31-2.27-27.33-9.08-57.53-24.04-87.73Z"/>
      </g>
      <path class="cls-5" d="m817.15,208.9c0,40.81-8.99,72.15-12.07,82.21l-40.49-.02c-.65-26.59-22.4-47.95-49.14-47.95s-48.47,21.35-49.14,47.92l-325.96-.12v-7.93c0-4.48-3.08-8.11-6.88-8.11h-82.49c-3.79,0-6.88,3.63-6.88,8.11v7.9h-35.72c-6.76-60.47-7.36-111.36-5.88-150.85,159.04-.88,318.09-1.77,477.13-2.64,20.73-1.21,62.03-.47,103.38,23.71,13.68,8,24.64,16.97,33.21,25.31.64,7.74.93,15.25.93,22.45Z"/>
      <path class="cls-4" d="m817.15,187.35v21.55c0-7.21-.28-14.72-.93-22.45.31.3.62.6.93.9Z"/>
      <circle class="cls-3" cx="717.41" cy="291.11" r="18.46"/>
      <ellipse class="cls-9" cx="817.15" cy="204.23" rx="6.54" ry="9.87"/>
      <ellipse class="cls-7" cx="201.84" cy="237.67" rx="6.54" ry="9.87"/>
      <path class="cls-8" d="m241.43,294.02h-31.79c-3.93,0-7.14-2.66-7.14-5.92h0c0-3.25,3.21-5.92,7.14-5.92h31.79c3.93,0,7.14,2.66,7.14,5.92h0c0,3.25-3.21,5.92-7.14,5.92Z"/>
      <path class="cls-8" d="m803.05,294.02h-33.66c-4.16,0-7.56-2.66-7.56-5.92h0c0-3.25,3.4-5.92,7.56-5.92h33.66c4.16,0,7.56,2.66,7.56,5.92h0c0,3.25-3.4,5.92-7.56,5.92Z"/>
      <rect class="cls-8" x="429.33" y="33.29" width="149.56" height="85.64"/>
      <polygon class="cls-8" points="275.87 33.28 235.93 118.93 396.98 118.93 396.98 33.28 275.87 33.28"/>
      <path class="cls-8" d="m717.86,33.29h-106.63v85.64h133.83v-27.82c.03-6.25-.68-18.78-7.09-32.44-6.46-13.78-15.44-21.76-20.12-25.38Z"/>
      <rect class="cls-3" x="627.01" y="79.94" width="16.46" height="38.98" rx="2.53" ry="2.53"/>
      <line class="cls-10" x1="268.23" y1="49.68" x2="396.98" y2="49.23"/>
      <line class="cls-10" x1="294.82" y1="33.29" x2="294.47" y2="49.59"/>
      <line class="cls-10" x1="317.73" y1="33.29" x2="317.41" y2="48.47"/>
      <line class="cls-10" x1="338.53" y1="33.29" x2="338.21" y2="48.26"/>
      <line class="cls-10" x1="358.65" y1="33.29" x2="358.32" y2="48.43"/>
      <line class="cls-10" x1="377.23" y1="33.29" x2="376.9" y2="48.52"/>
      <line class="cls-10" x1="476.57" y1="33.28" x2="476.85" y2="118.92"/>
      <line class="cls-10" x1="532.38" y1="33.13" x2="532.67" y2="118.76"/>
      <line class="cls-10" x1="745.06" y1="99.37" x2="727.49" y2="91.46"/>
      <line class="cls-10" x1="731.24" y1="84.37" x2="724.08" y2="97.94"/>
      <line class="cls-10" x1="663.73" y1="164.07" x2="698.95" y2="164.07"/>
      <rect class="cls-12" x="213.88" y="250.74" width="99.11" height="10.76" rx="5.38" ry="5.38"/>
      <rect class="cls-12" x="324.34" y="250.74" width="59.08" height="10.76" rx="5.38" ry="5.38"/>
      <rect class="cls-12" x="349.5" y="272.65" width="59.08" height="10.76" rx="5.38" ry="5.38"/>
      <rect class="cls-12" x="421.03" y="272.65" width="26.4" height="10.76" rx="5.38" ry="5.38"/>
      <rect class="cls-12" x="460.52" y="272.65" width="104.23" height="10.76" rx="5.38" ry="5.38"/>
      <rect class="cls-12" x="574.36" y="272.65" width="39.95" height="10.76" rx="5.38" ry="5.38"/>
      <rect class="cls-12" x="627.01" y="272.65" width="32.83" height="10.76" rx="5.38" ry="5.38"/>
      <rect class="cls-12" x="395.38" y="250.74" width="36.36" height="10.76" rx="5.38" ry="5.38"/>
      <rect class="cls-12" x="441.43" y="250.74" width="68.07" height="10.76" rx="5.38" ry="5.38"/>
      <rect class="cls-12" x="213.88" y="232.29" width="63.61" height="10.76" rx="5.38" ry="5.38"/>
      <rect class="cls-12" x="287.44" y="232.29" width="26.4" height="10.76" rx="5.38" ry="5.38"/>
      <rect class="cls-12" x="208.38" y="214.1" width="105.46" height="10.76" rx="5.38" ry="5.38"/>
      <rect class="cls-12" x="325.17" y="214.1" width="26.4" height="10.76" rx="5.38" ry="5.38"/>
      <rect class="cls-12" x="325.17" y="232.42" width="83.41" height="10.76" rx="5.38" ry="5.38"/>
      <rect class="cls-12" x="421.03" y="232.29" width="66.96" height="10.9" rx="5.45" ry="5.45"/>
      <rect class="cls-12" x="519.92" y="250.74" width="54.44" height="10.76" rx="5.38" ry="5.38"/>
      <rect class="cls-12" x="587.91" y="250.74" width="26.4" height="10.76" rx="5.38" ry="5.38"/>
      <rect class="cls-12" x="627.4" y="250.74" width="43.09" height="10.76" rx="5.38" ry="5.38"/>
      <rect class="cls-12" x="360.05" y="214.1" width="91.2" height="10.76" rx="5.38" ry="5.38"/>
      <rect class="cls-12" x="208.24" y="194.89" width="73.52" height="10.76" rx="5.38" ry="5.38"/>
      <rect class="cls-12" x="292.85" y="194.89" width="45.51" height="10.76" rx="5.38" ry="5.38"/>
    </g>
    <path class="cls-11" d="m1.5,289.64c5.33,1.66,13.04,3.11,21.17.62,11.18-3.42,13.6-11.37,22.34-11.31,7.34.05,9.2,5.69,19.21,9.36,8.93,3.28,17.41,2.45,22.97,1.33"/>
    <path class="cls-11" d="m87.2,260.69c5.33,1.66,13.04,3.11,21.17.62,11.18-3.42,13.6-11.37,22.34-11.31,7.34.05,9.2,5.69,19.21,9.36,8.93,3.28,17.41,2.45,22.97,1.33"/>
    <path class="cls-11" d="m40.35,221.18c5.33,1.66,13.04,3.11,21.17.62,11.18-3.42,13.6-11.37,22.34-11.31,7.34.05,9.2,5.69,19.21,9.36,8.93,3.28,17.41,2.45,22.97,1.33"/>
  </g>
</svg>